<svg width="102" height="101" viewBox="0 0 102 101" fill="none" xmlns="http://www.w3.org/2000/svg">
<g clip-path="url(#clip0)">
<path d="M100.125 5.65332H87.2181C86.1821 5.65332 85.3428 6.50576 85.3428 7.56142V13.0614H102V7.56142C102 6.5084 101.161 5.65332 100.125 5.65332Z" fill="#01F859"/>
<path d="M76.6993 14.7688H63.7952C62.7593 14.7688 61.9199 15.6239 61.9199 16.6769V26.2491H78.5773V16.6795C78.5773 15.6239 77.7379 14.7688 76.6993 14.7688Z" fill="#01F859"/>
<path d="M102 19.9414H85.3428V86.8622H102V19.9414Z" fill="#01F859"/>
<path d="M78.5773 33.1345H61.9199V101.003H78.5773V33.1345Z" fill="#01F859"/>
<path d="M102 93.7424H85.3428V101H102V93.7424Z" fill="#01F859"/>
<path d="M19.4092 18.9993H1.87531C0.839375 18.9993 0 19.8544 0 20.9074V28.1043H21.2872V20.9074C21.2872 19.8544 20.4478 18.9993 19.4092 18.9993Z" fill="#01F859"/>
<path d="M21.2872 34.9846H0V101H21.2872V34.9846Z" fill="#01F859"/>
<path d="M55.1545 85.0779H28.0527V101.003H55.1545V85.0779Z" fill="#01F859"/>
<path d="M55.1545 22.887H28.0527V78.1955H55.1545V22.887Z" fill="#01F859"/>
<path d="M53.2765 0H29.928C28.8921 0 28.0527 0.855082 28.0527 1.9081V16.0064H55.1545V1.9081C55.1545 0.855082 54.3151 0 53.2765 0Z" fill="#01F859"/>
</g>
<defs>
<clipPath id="clip0">
<rect width="102" height="101" fill="white"/>
</clipPath>
</defs>
</svg>
