<svg width="114" height="114" viewBox="0 0 114 114" fill="none" xmlns="http://www.w3.org/2000/svg">
<g clip-path="url(#clip0)">
<path d="M111.409 42.5652C111.224 42.7503 91.0519 58.8509 57 58.8509C22.948 58.8509 2.77597 42.7503 2.5909 42.5652L0.185059 45.3412C0.555189 45.7113 4.62662 48.8574 11.8442 52.3736L0.370124 81.4288L15.3604 79.208L24.0584 92.3476L36.0877 60.3314C36.2727 60.3314 36.4578 60.3314 36.6429 60.5165V114L57 99.7502L77.3571 114V60.7015C77.5422 60.7015 77.7273 60.7015 77.9123 60.5165L89.9416 92.5327L98.6396 79.3931L113.63 81.6139L101.971 52.7438C109.188 49.2275 113.26 45.8964 113.63 45.7113L111.409 42.5652Z" fill="#01F859"/>
<path d="M0 29.7955L13.5097 27.5747L20.3571 38.8636L28.5 18.5065C29.7955 19.0617 31.0909 19.4318 32.5714 19.8019L26.6493 45.3409L41.6396 38.8636L52.3734 51.8182L57 30.7208L61.6266 51.8182L72.3604 38.8636L87.3507 45.3409L81.4286 19.8019C82.724 19.4318 84.2045 18.8766 85.5 18.5065L93.6429 38.8636L100.49 27.5747L114 29.7955L103.821 9.80844C109.744 6.29221 113.26 3.33117 113.63 2.96104L111.224 0.185065C111.039 0.185065 87.3506 19.987 57 19.987C26.6493 19.987 2.96104 0.185065 2.59091 0L0.37013 2.96104C0.74026 3.33117 4.25649 6.29221 10.1786 9.80844L0 29.7955Z" fill="#01F859"/>
</g>
<defs>
<clipPath id="clip0">
<rect width="114" height="114" fill="white"/>
</clipPath>
</defs>
</svg>
