<svg width="119" height="98" viewBox="0 0 119 98" fill="none" xmlns="http://www.w3.org/2000/svg">
<path d="M115.244 90.4556H3.75631C1.68283 90.4556 0 92.1466 0 94.2252C0 96.3088 1.67782 97.9998 3.75631 97.9998H115.244C117.317 97.9998 119 96.3088 119 94.2252C119 92.1466 117.317 90.4556 115.244 90.4556Z" fill="#01F859"/>
<path d="M13.172 40.6653V78.1149H10.773C8.73456 78.1149 7.08179 79.7757 7.08179 81.8241V84.2348H111.918V81.8241C111.918 79.7757 110.265 78.1149 108.227 78.1149H105.828V40.6653H86.2599V78.1149H69.2813V40.6653H49.7134V78.1149H32.7349V40.6653H13.172Z" fill="#01F859"/>
<path d="M7.44741 34.4397H111.547C111.552 34.4397 111.552 34.4397 111.552 34.4397C113.591 34.4397 115.244 32.7789 115.244 30.7305C115.244 29.2307 114.362 27.9423 113.09 27.3535L61.1927 0.412535C60.131 -0.136047 58.8638 -0.136047 57.802 0.412535L5.74955 27.434C4.23701 28.2191 3.4557 29.9454 3.85637 31.6062C4.26205 33.2671 5.73954 34.4397 7.44741 34.4397Z" fill="#01F859"/>
</svg>
