<svg width="125" height="109" viewBox="0 0 125 109" fill="none" xmlns="http://www.w3.org/2000/svg">
<path d="M113.599 93.203H121.461V85.3046H116.22V64.242C116.294 62.1336 114.653 60.3673 112.555 60.2927C112.465 60.2902 112.378 60.2902 112.289 60.2927H55.9474C53.8489 60.2182 52.0908 61.8663 52.0166 63.9746C52.014 64.0646 52.014 64.152 52.0166 64.242V85.3046H46.7755V93.203H54.6371V101.102H29.742V80.4349C41.4039 77.275 50.0512 60.8198 50.0512 40.4154C50.0512 17.7716 39.4385 0 25.8112 0C12.1839 0 1.5713 17.7716 1.5713 40.4128C1.5713 60.8172 10.2185 77.2724 21.8804 80.4323V101.099H0V108.997H125V101.099H113.599V93.203ZM105.738 101.102H62.4987V93.203H105.738V101.102Z" fill="#01F859"/>
</svg>
