<svg width="117" height="102" viewBox="0 0 117 102" fill="none" xmlns="http://www.w3.org/2000/svg">
<path d="M114.89 33.8772C114.686 33.0648 114.148 32.375 113.413 31.9804C112.681 31.5858 111.814 31.5195 111.026 31.798C104.133 34.2354 93.4971 35.8006 81.533 35.8006C78.6253 35.8006 75.823 35.6878 73.1031 35.5121C71.6987 41.8989 69.4536 47.7617 66.5854 52.9249C66.7238 52.9183 66.859 52.8951 66.9975 52.8951C70.713 52.8951 73.7262 52.5833 73.7262 55.1036C73.7262 57.6205 70.713 62.0177 66.9975 62.0177C64.8315 62.0177 62.9259 61.3146 61.6962 60.2369C57.9807 64.8761 53.6422 68.5338 48.8618 70.9546C54.2521 89.1997 66.8524 102 81.533 102C101.119 102 116.997 79.2216 116.997 51.1243C117 45.0657 116.248 39.2626 114.89 33.8772ZM95.6697 87.1438C95.6071 87.4124 95.4093 87.6312 95.1488 87.7174C94.8884 87.807 94.6015 87.7506 94.3905 87.5715C91.6278 85.237 86.9266 83.6851 81.5363 83.6851C76.1461 83.6851 71.4449 85.237 68.6821 87.5715C68.4711 87.7473 68.1843 87.8037 67.9239 87.7174C67.6634 87.6279 67.4656 87.4124 67.403 87.1438C67.1722 86.1655 67.0337 85.1541 67.0337 84.1062C67.0337 76.0481 73.5251 69.5187 81.5363 69.5187C89.5476 69.5187 96.0389 76.0514 96.0389 84.1062C96.0389 85.1574 95.8972 86.1655 95.6697 87.1438ZM96.0686 62.021C92.3531 62.021 89.3399 57.6238 89.3399 55.1036C89.3399 52.5867 92.3531 52.8984 96.0686 52.8984C99.7841 52.8984 102.797 54.9411 102.797 57.458C102.801 59.9783 99.7874 62.021 96.0686 62.021Z" fill="#01F859"/>
<path d="M70.9339 19.4954C70.9339 13.4335 70.1822 7.63698 68.8206 2.25163C68.6162 1.43587 68.0788 0.749439 67.3437 0.351507C66.9118 0.11938 66.4304 0 65.9425 0C65.6128 0 65.2766 0.0563737 64.9568 0.169121C58.0632 2.60646 47.4277 4.17166 35.4636 4.17166C23.4996 4.17166 12.8674 2.60646 5.97379 0.169121C5.6573 0.0563737 5.32433 0 4.99135 0C4.50672 0 4.02209 0.11938 3.58691 0.354823C2.85503 0.752755 2.31435 1.43919 2.11325 2.25163C0.751669 7.63698 0 13.4368 0 19.4954C0 47.5927 15.8774 70.371 35.4669 70.371C55.0565 70.371 70.9339 47.5927 70.9339 19.4954ZM14.2026 25.8192C14.2026 23.2989 17.2159 21.2595 20.9314 21.2595C24.6501 21.2595 27.6601 25.6567 27.6601 28.1736C27.6601 30.6938 24.6468 30.3821 20.9314 30.3821C17.2159 30.3788 14.2026 28.3361 14.2026 25.8192ZM35.4669 60.7543C27.4557 60.7543 20.9643 54.2249 20.9643 46.1668C20.9643 45.1189 21.1061 44.1075 21.3336 43.1292C21.3962 42.8606 21.594 42.6451 21.8545 42.5555C22.1149 42.4693 22.4017 42.5257 22.6127 42.7015C25.3754 45.036 30.0767 46.5879 35.4669 46.5879C40.8572 46.5879 45.5584 45.036 48.3211 42.7015C48.5321 42.5224 48.819 42.4693 49.0794 42.5555C49.3398 42.6418 49.5377 42.8606 49.6003 43.1292C49.8278 44.1075 49.9695 45.1189 49.9695 46.1668C49.9695 54.2216 43.4748 60.7543 35.4669 60.7543ZM43.2704 28.1736C43.2704 25.6567 46.2837 21.2595 49.9992 21.2595C53.7147 21.2595 56.728 23.3023 56.728 25.8192C56.728 28.3361 53.7147 30.3788 49.9992 30.3788C46.2837 30.3788 43.2704 30.6905 43.2704 28.1736Z" fill="#01F859"/>
</svg>
