<svg width="52" height="109" viewBox="0 0 52 109" fill="none" xmlns="http://www.w3.org/2000/svg">
<path d="M42.0773 33.742C41.2818 31.557 39.0628 30.3384 36.8438 30.3384C35.7133 30.3384 35.6296 30.3804 34.9597 30.3804H15.1143C12.5603 30.3804 10.7182 31.599 9.8808 33.784L0.293034 63.072C-0.628061 65.5512 0.627978 68.2825 3.05632 69.2489C5.48466 70.1734 8.20608 68.9128 9.12717 66.4336L11.6811 59.5423C11.6811 59.5423 11.8486 58.828 11.8486 61.8954V102.571C11.8486 106.143 14.6956 109 18.2125 109C21.7294 109 24.5764 106.101 24.5764 102.571V75.9722C24.5764 75.9722 24.5346 75.72 24.7858 75.72H27.1723C27.4235 75.72 27.3816 75.9722 27.3816 75.9722V102.571C27.3816 106.143 30.2286 109 33.7455 109C37.2624 109 40.1095 106.101 40.1095 102.571V61.8954C40.1095 58.828 40.3607 59.7944 40.3607 59.7944L42.8309 66.4756C43.752 68.9548 46.4734 70.2154 48.9017 69.291C51.3301 68.3665 52.5861 65.5932 51.665 63.114L42.0773 33.742Z" fill="#2B3658"/>
<path d="M39.7747 13.5725C39.7747 21.052 33.662 27.1449 26.1258 27.1449C18.5895 27.1449 12.4768 21.0941 12.4768 13.5725C12.4768 6.05089 18.5895 0 26.1258 0C33.662 0 39.7747 6.05089 39.7747 13.5725Z" fill="#2B3658"/>
</svg>
