<svg width="55" height="109" viewBox="0 0 55 109" fill="none" xmlns="http://www.w3.org/2000/svg">
<path d="M41.1649 13.6459C41.1649 21.1805 34.9689 27.2919 27.33 27.2919C19.6911 27.2919 13.4951 21.1805 13.4951 13.6459C13.4951 6.11137 19.6911 0 27.33 0C34.9689 0 41.1649 6.11137 41.1649 13.6459Z" fill="#2B3658"/>
<path d="M54.5332 61.9789L42.7354 33.6406C42.0564 32.2174 41.4622 30.2919 38.7037 30.2919H17.7392C14.9807 30.2919 13.5378 32.0499 12.7315 33.6824L0.509293 61.7696C-0.678978 64.1137 0.297102 67.0019 2.67365 68.1321C5.05019 69.3042 7.89355 68.2995 9.08182 65.9555L10.0155 64.0718C10.0155 64.0718 10.3125 63.5695 10.1852 64.1137C9.50621 67.5879 7.68136 78.0108 7.68136 78.0108C7.21454 80.1874 8.69988 81.9455 10.9491 81.9455H16.2963C16.6783 81.9455 16.5934 82.2385 16.5934 82.2385V103.21C16.5934 106.726 18.8002 108.568 21.5587 108.568C24.2747 108.568 26.5239 106.726 26.5239 103.21V82.1548C26.5239 82.1548 26.5239 81.9455 26.7361 81.9455C27.0332 81.9455 27.7547 81.9455 28.0942 81.9455C28.2639 81.9455 28.2639 82.1548 28.2639 82.1548V103.168C28.2639 106.684 30.4707 108.526 33.2292 108.526C35.9452 108.526 38.1945 106.684 38.1945 103.168V82.2803C38.1945 82.2803 38.152 81.9455 38.5764 81.9455H44.3056C46.5548 81.9455 48.0402 80.1455 47.6582 77.9689C47.6582 77.9689 45.7909 66.7926 45.3241 63.7369C45.1968 62.8579 46.6397 65.9555 46.6397 65.9555C47.7855 68.3414 49.9499 69.346 52.3264 68.2158C54.6181 67.1694 55.679 64.3648 54.5332 61.9789Z" fill="#2B3658"/>
</svg>
